Coordinates
version=1
nRows=41
nColumns=38
inDegrees=no

Units are S.I. units (second, meters, Newtons, ...)
If the header above contains a line with 'inDegrees', this indicates whether rotational values are in degrees (yes) or radians (no).

endheader
time	pelvis_tilt	pelvis_list	pelvis_rotation	pelvis_tx	pelvis_ty	pelvis_tz	hip_flexion_r	hip_adduction_r	hip_rotation_r	knee_angle_r	ankle_angle_r	subtalar_angle_r	mtp_angle_r	hip_flexion_l	hip_adduction_l	hip_rotation_l	knee_angle_l	ankle_angle_l	subtalar_angle_l	mtp_angle_l	lumbar_extension	lumbar_bending	lumbar_rotation	arm_flex_r	arm_add_r	arm_rot_r	elbow_flex_r	pro_sup_r	wrist_flex_r	wrist_dev_r	arm_flex_l	arm_add_l	arm_rot_l	elbow_flex_l	pro_sup_l	wrist_flex_l	wrist_dev_l
0	-0.905645	1.44976	-0.529974	0.642494	2.03949	0.94079	0.171901	0.0531769	-0.187794	0.458318	-0.200906	0	0	-0.0404731	-0.296018	-0.214506	1.18704	-0.391333	0	0	-0.0716936	0.208057	0.224485	-0.382049	-0.260511	-0.139461	0.893799	1.5708	0	0	0.237076	0.021851	1.07747	0.185025	1.5708	0	0
0.01	-0.696127	1.44117	-0.732507	0.640921	2.03207	0.943819	0.122934	0.0518247	-0.179859	0.429955	-0.200859	0	0	-0.0413879	-0.253666	-0.139306	1.21462	-0.366381	0	0	-0.171885	0.170001	0.0338659	-0.191187	-0.312946	0.0964761	0.848834	1.5708	0	0	0.070803	-0.279033	0.665053	0.643904	1.41941	0	0
0.02	-0.723351	1.44657	-0.70358	0.639695	2.02335	0.944818	0.114158	0.0551628	-0.172654	0.417335	-0.199403	0	0	-0.00542514	-0.249763	-0.118576	1.25697	-0.308617	0	0	-0.165502	0.169494	0.0239718	-0.173637	-0.317554	0.11491	0.845693	1.5708	0	0	0.0364305	-0.245456	0.540506	0.636667	1.5708	0	0
0.03	-0.660676	1.44209	-0.764163	0.63868	2.01478	0.946523	0.0878888	0.0577015	-0.170874	0.403115	-0.196983	0	0	0.0135021	-0.247324	-0.112546	1.29183	-0.285307	0	0	-0.179572	0.16285	0.0178306	-0.154574	-0.318513	0.127145	0.843783	1.5708	0	0	0.0243778	-0.263159	0.52574	0.654518	1.54832	0	0
0.04	-0.603622	1.4384	-0.820209	0.637532	2.00647	0.948104	0.0631688	0.059863	-0.166679	0.388927	-0.195097	0	0	0.0337636	-0.243032	-0.1065	1.32229	-0.266055	0	0	-0.189588	0.157013	0.0173336	-0.139522	-0.32174	0.139849	0.843799	1.5708	0	0	0.0162304	-0.273756	0.52491	0.66666	1.54661	0	0
0.05	-0.547035	1.43483	-0.87867	0.636245	1.99795	0.949752	0.0385293	0.0612365	-0.162408	0.374568	-0.194178	0	0	0.0517143	-0.237783	-0.104344	1.3453	-0.250663	0	0	-0.199285	0.150599	0.0202107	-0.125646	-0.325039	0.151132	0.844647	1.5708	0	0	0.00802246	-0.282008	0.520564	0.678412	1.5463	0	0
0.06	-0.518781	1.43668	-0.910418	0.635029	1.98861	0.9513	0.0191086	0.0617613	-0.158097	0.356168	-0.197228	0	0	0.0740079	-0.231282	-0.104226	1.3596	-0.238759	0	0	-0.194482	0.148371	0.0289244	-0.121388	-0.330203	0.155573	0.847573	1.5708	0	0	0.00276662	-0.264592	0.509968	0.671845	1.5708	0	0
0.07	-0.440344	1.43266	-0.991925	0.633977	1.97999	0.952949	-0.00611727	0.0579989	-0.160619	0.345593	-0.196388	0	0	0.0882284	-0.222104	-0.11263	1.36968	-0.250501	0	0	-0.211348	0.134106	0.0284056	-0.102073	-0.32967	0.165234	0.845902	1.5708	0	0	-0.0132698	-0.29031	0.492725	0.697869	1.5708	0	0
0.08	-0.607584	1.46377	-0.833146	0.633345	1.96977	0.952279	0.0212685	0.0565453	-0.146827	0.339407	-0.200604	0	0	0.148695	-0.210183	-0.103908	1.37182	-0.252126	0	0	-0.120962	0.156774	0.172888	-0.241635	-0.318515	-0.0133856	0.894401	1.5708	0	0	0.141996	-0.122806	0.792287	0.433969	1.5708	0	0
0.09	-0.361623	1.43033	-1.07818	0.631461	1.96321	0.954999	-0.0412505	0.0556407	-0.16141	0.327715	-0.195858	0	0	0.124579	-0.210931	-0.10729	1.37451	-0.216858	0	0	-0.222613	0.119441	0.0367891	-0.078156	-0.335626	0.178598	0.85353	1.5708	0	0	-0.028315	-0.31107	0.493488	0.732985	1.51387	0	0
0.1	-0.366068	1.4416	-1.07882	0.630367	1.95466	0.955115	-0.0413372	0.0529208	-0.156079	0.324397	-0.192469	0	0	0.157891	-0.203347	-0.107469	1.37114	-0.211073	0	0	-0.207237	0.116949	0.0464904	-0.0754451	-0.339324	0.175857	0.858821	1.5708	0	0	-0.0364559	-0.28136	0.450724	0.721339	1.5708	0	0
0.11	-0.3349	1.44226	-1.11489	0.629495	1.94681	0.955657	-0.0540483	0.0503986	-0.146364	0.322743	-0.191739	0	0	0.177815	-0.197479	-0.110691	1.36293	-0.205312	0	0	-0.215282	0.106213	0.0501013	-0.0607232	-0.338962	0.177285	0.862015	1.5708	0	0	-0.0468116	-0.298287	0.428222	0.739302	1.5582	0	0
0.12	-0.286898	1.43822	-1.16378	0.628636	1.93805	0.956443	-0.0760964	0.0491736	-0.155674	0.308595	-0.187663	0	0	0.189837	-0.193786	-0.116472	1.348	-0.200757	0	0	-0.220556	0.100409	0.053763	-0.0544096	-0.339942	0.174683	0.869705	1.5708	0	0	-0.0542291	-0.300096	0.417367	0.75126	1.55792	0	0
0.13	-0.250014	1.435	-1.20331	0.627739	1.92954	0.957012	-0.0962648	0.0483682	-0.155248	0.297392	-0.185844	0	0	0.202199	-0.190721	-0.124082	1.32878	-0.197317	0	0	-0.22567	0.0956501	0.0604612	-0.0501776	-0.341135	0.167953	0.880444	1.5708	0	0	-0.0597031	-0.299503	0.406311	0.762149	1.56271	0	0
0.14	-0.220266	1.43217	-1.23573	0.626845	1.92101	0.957347	-0.115727	0.048156	-0.153504	0.2861	-0.184448	0	0	0.214181	-0.18809	-0.132561	1.3055	-0.19483	0	0	-0.230703	0.0910188	0.0674013	-0.0470305	-0.341167	0.157835	0.892745	1.5708	0	0	-0.0647608	-0.30002	0.394103	0.773185	1.56408	0	0
0.15	-0.18725	1.42557	-1.27099	0.625939	1.91277	0.957661	-0.139086	0.0485365	-0.151932	0.274298	-0.182977	0	0	0.221192	-0.186126	-0.142481	1.27823	-0.192936	0	0	-0.242016	0.0843539	0.0740155	-0.0429321	-0.33952	0.145704	0.905959	1.5708	0	0	-0.0716527	-0.312372	0.3878	0.792496	1.55718	0	0
0.16	-0.162027	1.42072	-1.29872	0.625068	1.90462	0.957806	-0.159183	0.0489025	-0.149657	0.264659	-0.18131	0	0	0.228908	-0.183837	-0.152801	1.24632	-0.19117	0	0	-0.24865	0.0786824	0.0847986	-0.0418016	-0.338685	0.132187	0.917807	1.5708	0	0	-0.071239	-0.316997	0.388654	0.804273	1.55022	0	0
0.17	-0.1437	1.41861	-1.31898	0.624444	1.8964	0.957714	-0.176021	0.0490449	-0.146018	0.255276	-0.179443	0	0	0.238127	-0.180382	-0.162602	1.20978	-0.188482	0	0	-0.250598	0.0753932	0.0988583	-0.0461087	-0.337815	0.11156	0.932416	1.5708	0	0	-0.064045	-0.311401	0.391431	0.804446	1.55497	0	0
0.18	-0.130654	1.41749	-1.33309	0.624008	1.8882	0.957326	-0.190551	0.0492651	-0.14385	0.24854	-0.176628	0	0	0.24711	-0.176436	-0.171165	1.16956	-0.184913	0	0	-0.251899	0.0713277	0.110924	-0.048634	-0.336578	0.0939578	0.944826	1.5708	0	0	-0.0597655	-0.313017	0.395702	0.809425	1.5552	0	0
0.19	-0.121293	1.41673	-1.34316	0.623676	1.88003	0.956779	-0.203792	0.0497076	-0.143213	0.24351	-0.173095	0	0	0.254787	-0.172329	-0.179525	1.12475	-0.182443	0	0	-0.252772	0.0679923	0.122864	-0.0514163	-0.335554	0.0771357	0.95717	1.5708	0	0	-0.0542433	-0.31464	0.402719	0.813363	1.55347	0	0
0.2	-0.114796	1.41695	-1.35	0.623481	1.87192	0.956055	-0.215006	0.0501369	-0.142709	0.240668	-0.168705	0	0	0.262016	-0.167825	-0.187917	1.07557	-0.182765	0	0	-0.252394	0.0650126	0.134843	-0.05425	-0.335179	0.0620916	0.9687	1.5708	0	0	-0.0475165	-0.316102	0.412112	0.815629	1.5507	0	0
0.21	-0.112743	1.41877	-1.35183	0.623455	1.86381	0.955109	-0.223894	0.050796	-0.141833	0.239309	-0.163209	0	0	0.269614	-0.162779	-0.195475	1.02254	-0.186155	0	0	-0.250026	0.0628691	0.146091	-0.0571869	-0.335022	0.0478021	0.979804	1.5708	0	0	-0.040102	-0.316298	0.422164	0.816211	1.54699	0	0
0.22	-0.113971	1.42186	-1.34911	0.623663	1.85577	0.953966	-0.230983	0.051702	-0.141304	0.23894	-0.156156	0	0	0.277417	-0.156751	-0.202141	0.965673	-0.192695	0	0	-0.246124	0.0617169	0.157092	-0.0613874	-0.334719	0.0319789	0.991363	1.5708	0	0	-0.030526	-0.315013	0.434886	0.814153	1.54181	0	0
0.23	-0.11139	1.42118	-1.35041	0.623869	1.84764	0.952856	-0.242694	0.0528602	-0.141286	0.237952	-0.149015	0	0	0.278561	-0.150351	-0.208435	0.905543	-0.198935	0	0	-0.247334	0.0578658	0.165776	-0.061879	-0.334381	0.0221055	0.999963	1.5708	0	0	-0.0246561	-0.328423	0.454991	0.82223	1.51983	0	0
0.24	-0.108614	1.42189	-1.35188	0.624181	1.83933	0.951752	-0.253336	0.0535816	-0.141022	0.236378	-0.143103	0	0	0.278656	-0.143311	-0.216624	0.841632	-0.206317	0	0	-0.247379	0.0557438	0.171476	-0.0612087	-0.335321	0.0167698	1.00857	1.5708	0	0	-0.0185432	-0.332382	0.469297	0.825812	1.49725	0	0
0.25	-0.114755	1.42693	-1.34355	0.624673	1.83094	0.950334	-0.258738	0.0546528	-0.141146	0.23578	-0.137454	0	0	0.282634	-0.135791	-0.223426	0.775914	-0.214587	0	0	-0.243594	0.0559913	0.17274	-0.0589558	-0.336619	0.0147537	1.01736	1.5708	0	0	-0.0151902	-0.323329	0.469102	0.821263	1.50876	0	0
0.26	-0.118211	1.42911	-1.33635	0.625266	1.82276	0.948871	-0.267387	0.0563272	-0.143136	0.235054	-0.129721	0	0	0.282696	-0.128014	-0.227521	0.708762	-0.223919	0	0	-0.232839	0.0554291	0.196001	-0.0750644	-0.336425	-0.00988303	1.02386	1.5708	0	0	0.0146862	-0.333123	0.531572	0.806	1.45614	0	0
0.27	-0.140112	1.43814	-1.31076	0.625952	1.81435	0.946971	-0.26819	0.0587946	-0.142597	0.234694	-0.123032	0	0	0.2893	-0.120155	-0.227261	0.639763	-0.231645	0	0	-0.224461	0.0576351	0.196019	-0.0742952	-0.337541	-0.0114576	1.0317	1.5708	0	0	0.0191917	-0.323397	0.535952	0.79679	1.47167	0	0
0.28	-0.168356	1.4469	-1.2781	0.626747	1.80595	0.9449	-0.269174	0.0617998	-0.142939	0.234588	-0.115747	0	0	0.294639	-0.112109	-0.223317	0.569421	-0.240326	0	0	-0.21579	0.0585825	0.193644	-0.0707687	-0.337656	-0.0100483	1.03531	1.5708	0	0	0.0181732	-0.320065	0.529628	0.795282	1.47473	0	0
0.29	-0.203228	1.4558	-1.23861	0.627707	1.79745	0.942706	-0.269622	0.0646524	-0.144572	0.23545	-0.108023	0	0	0.298462	-0.103512	-0.213947	0.498694	-0.250973	0	0	-0.206213	0.0598083	0.189405	-0.0661255	-0.338429	-0.00476383	1.03694	1.5708	0	0	0.0156277	-0.316419	0.521452	0.794249	1.47818	0	0
0.3	-0.244656	1.46366	-1.19284	0.628801	1.78884	0.940483	-0.270576	0.0674099	-0.147331	0.237363	-0.100645	0	0	0.300364	-0.0953865	-0.203883	0.43135	-0.260382	0	0	-0.197207	0.0611524	0.185256	-0.0619311	-0.339371	0.00125428	1.0378	1.5708	0	0	0.0128232	-0.313331	0.514307	0.793435	1.48224	0	0
0.31	-0.287752	1.47038	-1.14578	0.630019	1.78016	0.938316	-0.272079	0.0696469	-0.150947	0.240458	-0.0935088	0	0	0.300847	-0.0873072	-0.194758	0.369932	-0.267764	0	0	-0.189124	0.0626595	0.181759	-0.0585109	-0.340004	0.00602789	1.03851	1.5708	0	0	0.0104395	-0.309016	0.507158	0.791653	1.48627	0	0
0.32	-0.300714	1.47128	-1.12866	0.631256	1.77155	0.936469	-0.28028	0.0710276	-0.157523	0.244065	-0.086074	0	0	0.294273	-0.0788163	-0.186616	0.314853	-0.272883	0	0	-0.178553	0.0634203	0.2042	-0.0773708	-0.338831	-0.0182392	1.04179	1.5708	0	0	0.0486236	-0.325246	0.60398	0.774653	1.38041	0	0
0.33	-0.353483	1.47892	-1.07355	0.632564	1.76252	0.934361	-0.278951	0.0719303	-0.160982	0.250363	-0.0798279	0	0	0.295679	-0.070925	-0.176846	0.265836	-0.27558	0	0	-0.177878	0.0649556	0.181476	-0.0582545	-0.339637	0.00638529	1.04165	1.5708	0	0	0.019552	-0.308984	0.534258	0.781613	1.46585	0	0
0.34	-0.385618	1.48279	-1.03978	0.633695	1.75352	0.932538	-0.281915	0.0723912	-0.163912	0.256723	-0.075446	0	0	0.292655	-0.0640052	-0.167648	0.223909	-0.276168	0	0	-0.17458	0.0653273	0.176761	-0.0530477	-0.338621	0.0129276	1.04032	1.5708	0	0	0.0154002	-0.305245	0.523541	0.779373	1.47416	0	0
0.35	-0.412364	1.48587	-1.01258	0.634723	1.74442	0.930904	-0.28482	0.0721397	-0.166584	0.265409	-0.0705867	0	0	0.288893	-0.0582809	-0.158931	0.190367	-0.278832	0	0	-0.172054	0.0652798	0.173214	-0.0478491	-0.337095	0.0195557	1.03753	1.5708	0	0	0.0119789	-0.300951	0.513534	0.775862	1.48156	0	0
0.36	-0.425884	1.4874	-0.999721	0.6357	1.73517	0.929503	-0.289406	0.0711508	-0.16902	0.274735	-0.0674048	0	0	0.285613	-0.0541187	-0.155171	0.172609	-0.28016	0	0	-0.171476	0.0646822	0.171636	-0.044251	-0.335346	0.0249722	1.03484	1.5708	0	0	0.00993404	-0.297401	0.507356	0.772454	1.48794	0	0
0.37	-0.42583	1.48786	-1.00134	0.636644	1.72576	0.928321	-0.294973	0.0691984	-0.171479	0.285369	-0.0652996	0	0	0.284195	-0.0513894	-0.156724	0.173051	-0.280007	0	0	-0.172375	0.0635601	0.171303	-0.0417258	-0.333119	0.0293323	1.03201	1.5708	0	0	0.00868555	-0.293921	0.502573	0.768051	1.49415	0	0
0.38	-0.417285	1.48779	-1.01238	0.63759	1.71614	0.927313	-0.301175	0.0664562	-0.172896	0.296383	-0.0641491	0	0	0.285068	-0.0499661	-0.163125	0.190842	-0.277444	0	0	-0.173869	0.0619086	0.172385	-0.0405667	-0.330303	0.0322562	1.02886	1.5708	0	0	0.00809833	-0.291056	0.500036	0.762688	1.49999	0	0
0.39	-0.390146	1.48653	-1.0433	0.638602	1.70619	0.926607	-0.309355	0.0621915	-0.174142	0.307722	-0.06419	0	0	0.284783	-0.0486947	-0.173837	0.21998	-0.272838	0	0	-0.176561	0.059446	0.175425	-0.0413676	-0.327537	0.0344689	1.02543	1.5708	0	0	0.00768558	-0.288369	0.499307	0.757133	1.5059	0	0
0.4	-0.358271	1.48471	-1.07827	0.6398	1.69618	0.926091	-0.318222	0.0576706	-0.175376	0.318793	-0.0660713	0	0	0.283185	-0.0468883	-0.182437	0.253017	-0.268716	0	0	-0.179722	0.0570094	0.178513	-0.0436536	-0.324615	0.0353245	1.02221	1.5708	0	0	0.00830808	-0.285756	0.50076	0.750868	1.50977	0	0
